PathFileType	4	(X/Y/Z)	OpenSim_Sub05_CSStiffKnee_Accel.trc
DataRate	CameraRate	NumFrames	NumMarkers	Units	OrigDataRate	OrigDataStartFrame	OrigNumFrames
100	100	30	8	m	100	5625	11248
Frame#	Time	torso_imu_offset_imu	pelvis_imu_offset_imu	tibia_r_imu_offset_imu	femur_r_imu_offset_imu	tibia_l_imu_offset_imu	femur_l_imu_offset_imu	toes_r_imu_offset_imu	toes_l_imu_offset_imu
				X1	Y1	Z1	X2	Y2	Z2	X3	Y3	Z3	X4	Y4	Z4	X5	Y5	Z5	X6	Y6	Z6	X7	Y7	Z7	X8		Y8	Z8	

5625	56.24000000	9.43287792	-0.38346498	5.25584941	9.08884463	0.85632744	2.49865245	9.82821538	2.08892306	-0.43427828	9.29063425	-1.35714082	2.54173053	9.85436381	-5.20152304	0.28345911	9.01102401	-0.84036819	1.07616440	6.38926689	-2.18258106	7.44178417	10.99313003	1.35518179	9.26943699
5626	56.25000000	9.63063482	-0.41870442	5.36312295	9.22702466	0.72793571	2.38962681	9.90060030	1.92119486	-0.28300772	9.52509231	-1.58047146	2.50696898	9.74878358	-4.95484897	0.24913565	8.82998140	-0.97177273	1.03303163	6.28243585	-2.10609576	7.47617634	11.93588320	1.47700526	8.18342465
5627	56.26000000	9.67491804	-0.50030270	5.25657279	9.19866149	0.54341848	2.37354829	10.03372805	1.55613713	-0.08786682	9.73989214	-2.11730572	2.16051854	9.97792463	-4.47617997	-0.06544398	8.89301351	-0.88900028	1.24915969	6.53083521	-1.76211213	7.39981822	13.11181941	1.49991880	7.05229192
5628	56.27000000	9.63150503	-0.50209240	5.19658703	9.14853787	0.35843575	2.29486365	10.00420062	1.46765226	0.29870515	9.74652950	-2.53163039	1.96690875	9.91240216	-4.01763716	-0.25711112	9.03384632	-0.65177015	1.72467696	6.58484454	-1.34583484	7.41726667	14.73340764	1.30982005	5.98198743
5629	56.28000000	9.50757648	-0.37059456	5.30017970	9.13226465	0.24364889	2.20424399	10.07556699	1.51606932	0.86242298	9.33520949	-2.68900708	1.98786183	9.82136650	-4.13198250	-0.10503217	9.25241935	-0.23812774	2.16391120	6.43935337	-0.96050940	7.57949124	15.35851252	1.15429413	4.70747510
5630	56.29000000	9.39861480	-0.22214099	5.26342427	9.18911205	0.16811232	2.14924326	10.32994744	1.30670710	0.98940718	9.10380842	-2.73049268	2.04995830	9.69081235	-4.94822907	-0.52021008	9.28301130	0.30182499	2.21747261	6.49796884	-0.63152695	7.73887563	14.96561826	1.03215355	3.66696316
5631	56.30000000	9.26128031	-0.06934037	5.35141633	9.31444630	0.19724108	2.04785796	10.68183476	0.88667918	1.08341553	9.58461696	-2.74336659	2.13967023	9.48663835	-5.44235946	-0.90773425	9.06277108	0.65161790	1.92949448	6.71146877	-0.57307692	7.69756586	14.35463118	0.83659615	3.23488052
5632	56.31000000	9.21369772	-0.01536227	5.51415315	9.40376102	0.35532559	1.97547515	11.16081751	0.72539257	1.19304307	9.97513798	-2.61656573	2.38398589	9.26014226	-5.30884747	-0.95109978	8.72988488	0.75063702	1.50772599	6.67452409	-0.63342237	7.79008455	13.71072416	0.67477959	3.57491651
5633	56.32000000	9.43928430	0.11181707	5.52961356	9.53266488	0.63082205	1.92666405	11.50685608	0.67563840	1.16945908	10.07393013	-2.23675151	2.60224569	8.77582249	-5.50680304	-1.05178501	8.43551617	0.62452075	0.82485858	6.53676026	-0.85421921	7.89335754	12.95544094	0.53363488	4.32474918
5634	56.33000000	9.44783232	0.23217897	5.44194535	9.62885447	0.81402645	1.91346613	11.50052442	0.35120931	0.94558486	10.18910363	-2.05459900	2.55343621	8.22733202	-6.35935923	-1.33332168	8.04795045	0.19705709	0.05857056	6.57953663	-0.95081528	7.86172927	12.04124473	-0.41626036	5.06662615
5635	56.34000000	9.21240753	0.26296041	5.47124553	9.61537775	0.87332465	1.97482054	11.43441324	0.12395761	0.88852785	10.20560199	-2.44479910	2.20656334	7.57755844	-7.32510788	-1.60323427	7.54040627	-0.65029873	-0.13508518	6.86066260	-0.96485079	7.63268489	11.19958404	2.25941991	5.20631521
5636	56.35000000	8.91624606	0.31377527	5.61704941	9.59888817	0.75756347	2.09872607	11.70842987	-0.06687711	0.86229098	10.02297203	-2.99491345	1.90597017	7.82312411	-7.13058010	-1.99880499	7.36807134	-1.49162379	0.35077242	6.84914297	-1.07406319	7.66907892	11.82087175	-0.23838706	2.47501728
5637	56.36000000	8.59702997	0.38866402	5.58471395	9.41553231	0.56652835	2.12382668	12.09528354	-0.89373142	0.84925887	9.63664552	-3.47626009	2.21499236	8.91152573	-6.47200486	-1.80941551	7.63355700	-1.91654137	0.62277749	6.66548940	-1.59079957	7.83134792	15.07126606	-3.50213174	-0.13646803
5638	56.37000000	8.46416057	0.50753041	5.45245405	9.07342071	0.38959337	2.17014696	12.57500235	-2.43692196	1.17905580	9.23090379	-3.64758580	3.17265927	9.41146722	-7.16045311	-1.08614383	8.05012342	-1.86202087	0.57396413	6.45784029	-1.96789516	7.93982841	23.50755371	-0.57426549	-3.95600613
5639	56.38000000	8.45706676	0.48685497	5.42289298	8.69771897	0.10952031	2.51395109	12.85959279	-4.28800222	1.50893632	9.06356583	-3.33654646	3.78509668	10.28726565	-7.93931784	-0.05371491	8.54993046	-1.19197939	0.74076086	6.60258568	-1.46403691	8.15078568	19.93264544	-5.89041018	-7.15197581
5640	56.39000000	8.54192125	0.43079609	5.54673740	8.43772578	-0.37917809	2.89786004	13.47241660	-5.48086277	1.88568105	9.09448388	-3.19798599	3.39409913	11.44426453	-10.23527803	-0.10832318	9.75624913	-0.03314120	0.96725405	6.67351474	-0.91395819	8.77820037	21.72822969	-1.79640228	10.12027379
5641	56.40000000	8.73084747	0.40976144	5.77718815	8.57284965	-0.91982433	3.46824023	15.02411492	-5.35464321	3.13565898	9.05499626	-3.23971108	2.87152507	10.61954046	-12.22224953	-1.38799238	11.78498689	0.57856316	1.43972242	6.16632962	-1.05910432	9.59432348	18.92074526	3.25491849	22.35204523
5642	56.41000000	9.08528500	0.53313641	6.03792524	8.98581138	-1.58896171	4.12047778	16.24947384	-4.79241429	3.84170702	9.08567943	-3.34392482	2.87475673	11.30973712	-6.83703825	2.84533244	14.58268805	0.08345729	1.85504263	6.05442653	-1.76736701	10.17547172	1.74928102	-0.97490667	15.06259028
5643	56.42000000	9.61690977	0.89382455	6.36927802	9.56782095	-2.37498019	4.40227902	16.68858184	-4.27754503	3.20165943	9.32051162	-3.89156463	3.18159326	13.28322602	1.02847534	7.20948707	15.62906400	-0.84729293	1.74858792	6.57644015	-2.44628786	10.75380876	4.72536796	2.01748692	15.88629491
5644	56.43000000	9.82328291	1.38739576	6.46835156	10.20270381	-2.74894913	4.47804727	17.43358703	-5.74011923	2.27186166	9.32242657	-4.24170940	4.51117161	11.55827004	2.12719711	5.61946702	13.29334983	-1.49341494	1.23655131	6.97235700	-3.55295902	11.49547399	8.49650858	2.32161795	15.20466342
5645	56.44000000	9.27882846	1.91947967	6.02841374	10.64280930	-2.61155378	4.39171088	17.99491640	-8.81700103	2.00068945	9.55737408	-3.61354653	6.33606466	9.45191623	-2.34676550	1.37310838	10.87149094	-1.16084919	0.78900696	8.72566698	-5.69579904	10.81310514	5.92755133	-0.06715319	10.87406006
5646	56.45000000	8.34651424	2.46117145	5.38975898	10.71468525	-2.13346561	4.24568556	17.24069275	-8.75251490	0.43767067	10.31314134	-2.66708037	6.50835422	8.96428294	-6.46078405	-1.86601063	9.86559942	0.16015532	0.86442897	12.40831894	-3.82560305	11.71502983	6.12670396	0.06923932	10.97001621
5647	56.46000000	7.71820422	2.98317179	5.04839048	10.39779084	-1.43758565	4.02914024	15.28063299	-4.40763729	-1.47037084	10.59025892	-1.93215802	5.51313420	9.03488028	-6.86409716	-1.29533434	9.07575025	1.34907590	0.87650539	16.40496736	-2.92450627	11.87215342	6.20222869	1.20105428	11.12888008
5648	56.47000000	7.48298690	3.46314302	5.07941222	9.71885653	-0.97799068	3.68431109	12.96294706	0.79225363	-1.18987079	10.85676022	-1.28745408	4.19655336	9.48423719	-4.25089443	-0.87175576	8.67779135	1.02584408	0.15062134	20.13464073	-5.73996996	9.65524726	5.40341980	2.93656078	10.94703160
5649	56.48000000	7.53597180	3.71503663	5.29550802	8.86602743	-1.03570876	3.45047726	10.81045817	5.50960248	-1.69162913	11.24024794	-0.92972206	2.52711100	9.49480009	-2.05862425	-1.99476961	9.07656249	-1.02385145	-1.15988913	19.39757434	-6.21289663	8.96518379	5.02234687	3.74646119	11.06678864
5650	56.49000000	7.98477016	3.67788534	5.58561219	8.24029150	-1.61262876	3.29668262	8.78768102	9.76319078	-2.56161369	10.96380425	-1.46332169	1.24197629	10.07293996	-2.21029633	-2.21096703	9.67360444	-3.32508377	-2.15426407	17.32595854	-5.12992491	8.23467245	4.84245561	3.41695044	11.33198559
5651	56.50000000	8.68243619	3.46197264	6.02516460	8.27668583	-2.51139006	3.15589974	7.34995900	12.89539597	-2.37892435	10.73393743	-2.58405541	1.69846535	11.13260756	-3.26251830	-1.72163802	10.10930786	-4.39262821	-2.33415210	11.40685276	-3.42272489	12.81624388	4.90465107	2.38187469	11.44848301
5652	56.51000000	9.20331620	3.14686687	6.30348205	8.78607118	-3.22846698	3.17621078	6.52478610	15.33261106	-2.33427892	11.11425153	-3.44589216	2.97784093	10.92340517	-3.29586758	-1.72350741	10.22854948	-3.93447152	-1.99141342	9.30788123	-6.27431355	20.88314982	4.77064574	2.10723154	11.53254288
5653	56.52000000	9.52465489	2.96007726	6.43670358	9.54694332	-3.55959777	3.34055153	5.30780561	15.07473766	-3.28241573	11.94202407	-4.02793194	3.73657930	10.31820753	-1.70380800	-1.11253898	10.17524709	-2.58779886	-1.50615560	5.28000972	-8.53098550	21.85600065	5.04161885	2.53336138	11.23392235
5654	56.53000000	9.92396936	2.81774783	6.52752714	10.49689304	-3.50182420	3.53356136	3.85867960	10.46306296	-2.20815129	12.73933142	-4.34723534	4.37269497	10.19368161	-0.32921529	-0.86829695	9.98247615	-1.31828170	-0.98303905	-2.07279602	-7.47474869	18.25624848	5.28576587	2.60205169	10.99636171
